<svg width="18" height="22" viewBox="0 0 18 22" fill="none" xmlns="http://www.w3.org/2000/svg">
<path d="M15 8C15 4.68629 12.3137 2 9 2C5.68629 2 3 4.68629 3 8V16H15V8ZM17 16.6667L17.4 17.2C17.5657 17.4209 17.5209 17.7343 17.3 17.9C17.2135 17.9649 17.1082 18 17 18H1C0.72386 18 0.5 17.7761 0.5 17.5C0.5 17.3918 0.53509 17.2865 0.6 17.2L1 16.6667V8C1 3.58172 4.58172 0 9 0C13.4183 0 17 3.58172 17 8V16.6667ZM6.5 19H11.5C11.5 20.3807 10.3807 21.5 9 21.5C7.6193 21.5 6.5 20.3807 6.5 19Z" fill="#282C3F"/>
</svg>
