<svg width="20" height="20" viewBox="0 0 20 20" fill="none" xmlns="http://www.w3.org/2000/svg">
<g clip-path="url(#clip0_159_625)">
<path d="M19.6307 8.18182H10.3125V12.0455H15.6761C15.1761 14.5 13.0852 15.9091 10.3125 15.9091C7.03978 15.9091 4.40341 13.2727 4.40341 10C4.40341 6.72728 7.03978 4.09091 10.3125 4.09091C11.7216 4.09091 12.9943 4.59091 13.9943 5.40909L16.9034 2.5C15.1307 0.954546 12.858 0 10.3125 0C4.76705 0 0.3125 4.45455 0.3125 10C0.3125 15.5455 4.76705 20 10.3125 20C15.3125 20 19.858 16.3636 19.858 10C19.858 9.40909 19.7671 8.77273 19.6307 8.18182Z" fill="white"/>
</g>
<defs>
<clipPath id="clip0_159_625">
<rect width="20" height="20" fill="white"/>
</clipPath>
</defs>
</svg>
