<svg width="247" height="43" viewBox="0 0 247 43" fill="none" xmlns="http://www.w3.org/2000/svg">
<path d="M242.658 2.38807H246.892V36.4015H242.658V2.38807ZM234.992 12.1526V36.4015H230.715V31.2679C229.136 34.7207 226.162 36.4776 221.792 36.5385C219.353 36.6762 216.97 35.7678 215.239 34.0403C213.575 32.1419 212.725 29.6639 212.871 27.1422V12.1526H217.15V25.9945C217.045 27.7491 217.643 29.4731 218.812 30.7841C220.029 31.9737 221.688 32.5973 223.386 32.5029C225.441 32.5584 227.41 31.6724 228.734 30.096C230.099 28.3927 230.803 26.2516 230.715 24.0688V12.1526H234.992ZM204.842 36.4015L197.149 24.6211L192.455 29.5262V36.4015H188.221V2.38807H192.455V24.0701L204.115 12.1526H209.078L200.111 21.549L209.943 36.4015H204.846H204.842ZM180.311 3.26024C180.816 3.78926 181.087 4.50002 181.063 5.2317C181.087 5.96338 180.816 6.67414 180.311 7.20316C179.266 8.2417 177.58 8.2417 176.534 7.20316C176.029 6.67414 175.758 5.96338 175.783 5.2317C175.758 4.50002 176.029 3.78926 176.534 3.26024C177.58 2.22169 179.266 2.22169 180.311 3.26024ZM176.329 12.1526H180.562V36.4015H176.329V12.1526ZM162.996 31.7261C164.223 30.9955 165.218 29.9306 165.864 28.6554C166.562 27.2788 166.913 25.7523 166.889 24.2085C166.91 22.6775 166.55 21.1652 165.841 19.8087C165.186 18.5401 164.193 17.4774 162.973 16.7379C161.721 15.9939 160.287 15.6128 158.831 15.6373C157.368 15.6152 155.928 15.9959 154.666 16.7379C153.437 17.4725 152.436 18.5358 151.776 19.8087C151.068 21.1656 150.708 22.6776 150.729 24.2085C150.699 25.7627 151.059 27.2996 151.776 28.6782C152.441 29.9415 153.441 30.9962 154.666 31.7261C157.25 33.1924 160.412 33.1924 162.996 31.7261ZM165.66 13.5745C167.412 14.6049 168.833 16.1156 169.756 17.9286C170.756 19.9168 171.256 22.1197 171.213 24.3456C171.254 26.5468 170.762 28.7252 169.779 30.694C168.871 32.491 167.464 33.9871 165.728 35.0025C163.908 36.0462 161.839 36.5769 159.742 36.5385C157.873 36.5772 156.026 36.1353 154.377 35.2551C152.837 34.4077 151.573 33.1347 150.735 31.5877V36.4015H146.502V2.38807H150.729V16.965C151.563 15.4217 152.82 14.1489 154.351 13.2963C155.978 12.417 157.805 11.9748 159.653 12.0129C161.76 11.9776 163.836 12.517 165.66 13.5731V13.5745ZM124.607 16.828C123.384 17.5557 122.39 18.6138 121.739 19.8813C121.04 21.2491 120.688 22.7686 120.714 24.3053C120.686 25.864 121.038 27.4061 121.739 28.7978C122.383 30.0679 123.378 31.1248 124.607 31.8417C125.888 32.5728 127.343 32.9442 128.817 32.9168C130.277 32.9404 131.716 32.569 132.982 31.8417C134.211 31.1236 135.207 30.0653 135.85 28.7938C136.551 27.402 136.902 25.8599 136.873 24.3012C136.9 22.7647 136.549 21.2452 135.85 19.8772C135.198 18.6118 134.205 17.5556 132.982 16.8293C131.721 16.0869 130.28 15.7062 128.817 15.7287C127.34 15.7019 125.883 16.0821 124.607 16.828ZM135.211 13.5731C137.044 14.5782 138.559 16.079 139.582 17.9044C140.652 19.8457 141.194 22.0353 141.152 24.2529C141.192 26.4775 140.651 28.6739 139.582 30.6242C138.564 32.4595 137.049 33.969 135.211 34.9783C131.184 37.0562 126.403 37.0562 122.376 34.9783C120.542 33.974 119.026 32.4737 118.001 30.6484C116.927 28.6918 116.385 26.4867 116.43 24.2542C116.388 22.0366 116.93 19.8471 118.001 17.9058C119.024 16.0807 120.538 14.58 122.371 13.5745C126.399 11.4941 131.183 11.4936 135.211 13.5731ZM109.684 14.5367C111.34 16.4304 112.19 18.8983 112.052 21.4119V36.4015H107.773V22.5596C107.875 20.7986 107.277 19.0686 106.111 17.7472C104.902 16.5429 103.24 15.9081 101.537 16.0001C99.476 15.9657 97.5077 16.8571 96.1717 18.4299C94.8188 20.1298 94.1239 22.262 94.2147 24.4343V36.3947H89.9264V22.5529C90.0283 20.7958 89.44 19.0686 88.2873 17.7405C87.0733 16.528 85.4004 15.8924 83.6892 15.9934C81.6193 15.9631 79.6432 16.857 78.297 18.4326C76.9305 20.1264 76.2267 22.2609 76.3172 24.437V36.3974H72.0826V12.1526H76.3158V17.2405C77.8942 13.8181 80.8831 12.0765 85.2827 12.0156C87.2503 11.9419 89.1892 12.5045 90.813 13.6201C92.3046 14.7186 93.3608 16.3098 93.7949 18.1127C95.282 14.1098 98.4077 12.0774 103.172 12.0156C105.603 11.8832 107.974 12.801 109.684 14.5367ZM45.3 4.89317e-06H44.3839C40.6965 -0.00273975 37.2629 1.88111 35.2793 4.99535C33.2956 8.1096 33.0364 12.0231 34.5921 15.3726L45.6877 39.2612C46.9591 42.0097 49.9682 43.5015 52.9204 42.847C55.8726 42.1924 57.9724 39.5679 57.9676 36.5385V12.6915C57.9669 5.6825 52.2958 0.000746939 45.3 4.89317e-06ZM27.6802 9.53343C24.9744 3.714 19.1454 -0.00492389 12.7376 4.89317e-06C5.76576 0.00296931 0.114067 5.66352 0.108887 12.6485V37.9483C0.11332 40.7302 2.36356 42.9841 5.14026 42.9878H14.2426C16.0062 42.9891 17.6477 42.0853 18.592 40.5929C19.5363 39.1006 19.6519 37.2277 18.8984 35.6301L14.7724 26.7498C14.4609 26.0887 14.5252 25.3113 14.9409 24.7104C15.3566 24.1096 16.0607 23.7766 16.7879 23.8369C17.5151 23.8972 18.155 24.3416 18.4665 25.0027L25.0739 39.1457C26.174 41.48 28.5186 42.9698 31.0952 42.9717H35.3459C37.0648 42.9749 38.6659 42.0973 39.5903 40.6455C40.5147 39.1936 40.6339 37.3691 39.9065 35.8088L27.6802 9.53343Z" fill="#282C3F"/>
</svg>
